<svg width="54" height="25" viewBox="0 0 54 25" fill="none" xmlns="http://www.w3.org/2000/svg">
<line y1="24.5" x2="54" y2="24.5" stroke="white"/>
<mask id="path-2-outside-1_479_2883" maskUnits="userSpaceOnUse" x="2" y="4" width="48" height="21" fill="black">
<rect fill="white" x="2" y="4" width="48" height="21"/>
<path d="M3.71 19V6.148H5.654V17.326H11.144V19H3.71ZM21.6944 14.14C21.6944 15.748 21.2804 16.99 20.4524 17.866C19.6244 18.742 18.5084 19.18 17.1044 19.18C16.2284 19.18 15.4484 18.982 14.7644 18.586C14.0924 18.19 13.5584 17.62 13.1624 16.876C12.7784 16.12 12.5864 15.208 12.5864 14.14C12.5864 12.532 12.9944 11.296 13.8104 10.432C14.6264 9.556 15.7424 9.118 17.1584 9.118C18.0464 9.118 18.8264 9.316 19.4984 9.712C20.1824 10.096 20.7164 10.66 21.1004 11.404C21.4964 12.148 21.6944 13.06 21.6944 14.14ZM14.5484 14.14C14.5484 15.232 14.7524 16.084 15.1604 16.696C15.5804 17.308 16.2404 17.614 17.1404 17.614C18.0404 17.614 18.6944 17.308 19.1024 16.696C19.5224 16.084 19.7324 15.232 19.7324 14.14C19.7324 13.036 19.5224 12.19 19.1024 11.602C18.6824 11.002 18.0224 10.702 17.1224 10.702C16.2224 10.702 15.5684 11.002 15.1604 11.602C14.7524 12.19 14.5484 13.036 14.5484 14.14ZM27.4611 9.118C28.7451 9.118 29.7351 9.604 30.4311 10.576H30.5211L30.7371 9.298H32.2851V19.126C32.2851 20.506 31.9131 21.55 31.1691 22.258C30.4371 22.966 29.3151 23.32 27.8031 23.32C27.0951 23.32 26.4471 23.272 25.8591 23.176C25.2831 23.08 24.7491 22.93 24.2571 22.726V21.052C25.2891 21.556 26.5071 21.808 27.9111 21.808C28.7031 21.808 29.3151 21.58 29.7471 21.124C30.1791 20.68 30.3951 20.05 30.3951 19.234V18.91C30.3951 18.754 30.4011 18.55 30.4131 18.298C30.4251 18.046 30.4371 17.854 30.4491 17.722H30.3771C30.0531 18.226 29.6451 18.598 29.1531 18.838C28.6611 19.066 28.0971 19.18 27.4611 19.18C26.2371 19.18 25.2771 18.742 24.5811 17.866C23.8971 16.978 23.5551 15.748 23.5551 14.176C23.5551 12.616 23.8971 11.386 24.5811 10.486C25.2771 9.574 26.2371 9.118 27.4611 9.118ZM27.8571 10.702C27.1011 10.702 26.5191 11.002 26.1111 11.602C25.7151 12.202 25.5171 13.066 25.5171 14.194C25.5171 15.322 25.7151 16.18 26.1111 16.768C26.5191 17.356 27.1131 17.65 27.8931 17.65C28.7811 17.65 29.4291 17.41 29.8371 16.93C30.2571 16.438 30.4671 15.64 30.4671 14.536V14.176C30.4671 12.94 30.2571 12.052 29.8371 11.512C29.4171 10.972 28.7571 10.702 27.8571 10.702ZM36.2473 5.608C36.5353 5.608 36.7873 5.692 37.0033 5.86C37.2193 6.028 37.3273 6.31 37.3273 6.706C37.3273 7.09 37.2193 7.372 37.0033 7.552C36.7873 7.72 36.5353 7.804 36.2473 7.804C35.9353 7.804 35.6713 7.72 35.4553 7.552C35.2513 7.372 35.1493 7.09 35.1493 6.706C35.1493 6.31 35.2513 6.028 35.4553 5.86C35.6713 5.692 35.9353 5.608 36.2473 5.608ZM37.1833 9.298V19H35.2753V9.298H37.1833ZM45.0935 9.118C46.2215 9.118 47.0855 9.4 47.6855 9.964C48.2855 10.528 48.5855 11.434 48.5855 12.682V19H46.6955V12.952C46.6955 11.44 46.0295 10.684 44.6975 10.684C43.7015 10.684 43.0175 10.978 42.6455 11.566C42.2735 12.154 42.0875 13 42.0875 14.104V19H40.1795V9.298H41.6915L41.9615 10.594H42.0695C42.3815 10.09 42.8075 9.718 43.3475 9.478C43.8995 9.238 44.4815 9.118 45.0935 9.118Z"/>
</mask>
<path d="M3.71 19V6.148H5.654V17.326H11.144V19H3.71ZM21.6944 14.14C21.6944 15.748 21.2804 16.99 20.4524 17.866C19.6244 18.742 18.5084 19.18 17.1044 19.18C16.2284 19.18 15.4484 18.982 14.7644 18.586C14.0924 18.19 13.5584 17.62 13.1624 16.876C12.7784 16.12 12.5864 15.208 12.5864 14.14C12.5864 12.532 12.9944 11.296 13.8104 10.432C14.6264 9.556 15.7424 9.118 17.1584 9.118C18.0464 9.118 18.8264 9.316 19.4984 9.712C20.1824 10.096 20.7164 10.66 21.1004 11.404C21.4964 12.148 21.6944 13.06 21.6944 14.14ZM14.5484 14.14C14.5484 15.232 14.7524 16.084 15.1604 16.696C15.5804 17.308 16.2404 17.614 17.1404 17.614C18.0404 17.614 18.6944 17.308 19.1024 16.696C19.5224 16.084 19.7324 15.232 19.7324 14.14C19.7324 13.036 19.5224 12.19 19.1024 11.602C18.6824 11.002 18.0224 10.702 17.1224 10.702C16.2224 10.702 15.5684 11.002 15.1604 11.602C14.7524 12.19 14.5484 13.036 14.5484 14.14ZM27.4611 9.118C28.7451 9.118 29.7351 9.604 30.4311 10.576H30.5211L30.7371 9.298H32.2851V19.126C32.2851 20.506 31.9131 21.55 31.1691 22.258C30.4371 22.966 29.3151 23.32 27.8031 23.32C27.0951 23.32 26.4471 23.272 25.8591 23.176C25.2831 23.08 24.7491 22.93 24.2571 22.726V21.052C25.2891 21.556 26.5071 21.808 27.9111 21.808C28.7031 21.808 29.3151 21.58 29.7471 21.124C30.1791 20.68 30.3951 20.05 30.3951 19.234V18.91C30.3951 18.754 30.4011 18.55 30.4131 18.298C30.4251 18.046 30.4371 17.854 30.4491 17.722H30.3771C30.0531 18.226 29.6451 18.598 29.1531 18.838C28.6611 19.066 28.0971 19.18 27.4611 19.18C26.2371 19.18 25.2771 18.742 24.5811 17.866C23.8971 16.978 23.5551 15.748 23.5551 14.176C23.5551 12.616 23.8971 11.386 24.5811 10.486C25.2771 9.574 26.2371 9.118 27.4611 9.118ZM27.8571 10.702C27.1011 10.702 26.5191 11.002 26.1111 11.602C25.7151 12.202 25.5171 13.066 25.5171 14.194C25.5171 15.322 25.7151 16.18 26.1111 16.768C26.5191 17.356 27.1131 17.65 27.8931 17.65C28.7811 17.65 29.4291 17.41 29.8371 16.93C30.2571 16.438 30.4671 15.64 30.4671 14.536V14.176C30.4671 12.94 30.2571 12.052 29.8371 11.512C29.4171 10.972 28.7571 10.702 27.8571 10.702ZM36.2473 5.608C36.5353 5.608 36.7873 5.692 37.0033 5.86C37.2193 6.028 37.3273 6.31 37.3273 6.706C37.3273 7.09 37.2193 7.372 37.0033 7.552C36.7873 7.72 36.5353 7.804 36.2473 7.804C35.9353 7.804 35.6713 7.72 35.4553 7.552C35.2513 7.372 35.1493 7.09 35.1493 6.706C35.1493 6.31 35.2513 6.028 35.4553 5.86C35.6713 5.692 35.9353 5.608 36.2473 5.608ZM37.1833 9.298V19H35.2753V9.298H37.1833ZM45.0935 9.118C46.2215 9.118 47.0855 9.4 47.6855 9.964C48.2855 10.528 48.5855 11.434 48.5855 12.682V19H46.6955V12.952C46.6955 11.44 46.0295 10.684 44.6975 10.684C43.7015 10.684 43.0175 10.978 42.6455 11.566C42.2735 12.154 42.0875 13 42.0875 14.104V19H40.1795V9.298H41.6915L41.9615 10.594H42.0695C42.3815 10.09 42.8075 9.718 43.3475 9.478C43.8995 9.238 44.4815 9.118 45.0935 9.118Z" fill="white"/>
<path d="M3.71 19H2.71V20H3.71V19ZM3.71 6.148V5.148H2.71V6.148H3.71ZM5.654 6.148H6.654V5.148H5.654V6.148ZM5.654 17.326H4.654V18.326H5.654V17.326ZM11.144 17.326H12.144V16.326H11.144V17.326ZM11.144 19V20H12.144V19H11.144ZM4.71 19V6.148H2.71V19H4.71ZM3.71 7.148H5.654V5.148H3.71V7.148ZM4.654 6.148V17.326H6.654V6.148H4.654ZM5.654 18.326H11.144V16.326H5.654V18.326ZM10.144 17.326V19H12.144V17.326H10.144ZM11.144 18H3.71V20H11.144V18ZM20.4524 17.866L21.1791 18.5529L20.4524 17.866ZM14.7644 18.586L14.2567 19.4476L14.2634 19.4514L14.7644 18.586ZM13.1624 16.876L12.2708 17.3289L12.2751 17.3374L12.2796 17.3458L13.1624 16.876ZM13.8104 10.432L14.5374 11.1186L14.5421 11.1136L13.8104 10.432ZM19.4984 9.712L18.9907 10.5735L18.9997 10.5789L19.0089 10.584L19.4984 9.712ZM21.1004 11.404L20.2117 11.8627L20.2176 11.8738L21.1004 11.404ZM15.1604 16.696L14.3283 17.2507L14.3359 17.2618L15.1604 16.696ZM19.1024 16.696L18.2778 16.1301L18.2703 16.1413L19.1024 16.696ZM19.1024 11.602L18.2831 12.1755L18.2887 12.1832L19.1024 11.602ZM15.1604 11.602L15.982 12.1721L15.9873 12.1643L15.1604 11.602ZM20.6944 14.14C20.6944 15.5799 20.3261 16.5438 19.7257 17.1791L21.1791 18.5529C22.2346 17.4362 22.6944 15.9161 22.6944 14.14H20.6944ZM19.7257 17.1791C19.118 17.822 18.2828 18.18 17.1044 18.18V20.18C18.734 20.18 20.1308 19.662 21.1791 18.5529L19.7257 17.1791ZM17.1044 18.18C16.3848 18.18 15.7811 18.0191 15.2654 17.7206L14.2634 19.4514C15.1157 19.9449 16.072 20.18 17.1044 20.18V18.18ZM15.2721 17.7245C14.7716 17.4295 14.3618 17.0011 14.0451 16.4062L12.2796 17.3458C12.755 18.2389 13.4132 18.9505 14.2567 19.4475L15.2721 17.7245ZM14.054 16.4231C13.7573 15.8391 13.5864 15.0905 13.5864 14.14H11.5864C11.5864 15.3255 11.7995 16.4009 12.2708 17.3289L14.054 16.4231ZM13.5864 14.14C13.5864 12.6955 13.951 11.7395 14.5374 11.1186L13.0834 9.74538C12.0378 10.8525 11.5864 12.3685 11.5864 14.14H13.5864ZM14.5421 11.1136C15.1344 10.4778 15.9647 10.118 17.1584 10.118V8.118C15.52 8.118 14.1184 8.63421 13.0787 9.7504L14.5421 11.1136ZM17.1584 10.118C17.893 10.118 18.4929 10.2802 18.9907 10.5735L20.0061 8.85046C19.1599 8.35182 18.1998 8.118 17.1584 8.118V10.118ZM19.0089 10.584C19.5106 10.8657 19.9112 11.2802 20.2118 11.8626L21.989 10.9454C21.5216 10.0398 20.8542 9.32634 19.9879 8.84002L19.0089 10.584ZM20.2176 11.8738C20.518 12.4382 20.6944 13.179 20.6944 14.14H22.6944C22.6944 12.941 22.4748 11.8578 21.9831 10.9342L20.2176 11.8738ZM13.5484 14.14C13.5484 15.3393 13.7697 16.4128 14.3283 17.2507L15.9924 16.1413C15.7351 15.7552 15.5484 15.1247 15.5484 14.14H13.5484ZM14.3359 17.2618C14.9834 18.2053 15.9906 18.614 17.1404 18.614V16.614C16.4902 16.614 16.1774 16.4107 15.9849 16.1302L14.3359 17.2618ZM17.1404 18.614C18.2894 18.614 19.2982 18.2051 19.9344 17.2507L18.2703 16.1413C18.0906 16.4109 17.7914 16.614 17.1404 16.614V18.614ZM19.9269 17.2618C20.5034 16.4218 20.7324 15.3438 20.7324 14.14H18.7324C18.7324 15.1202 18.5414 15.7462 18.2779 16.1302L19.9269 17.2618ZM20.7324 14.14C20.7324 12.9308 20.5059 11.8465 19.9161 11.0208L18.2887 12.1832C18.5388 12.5335 18.7324 13.1412 18.7324 14.14H20.7324ZM19.9216 11.0285C19.2708 10.0988 18.2643 9.702 17.1224 9.702V11.702C17.7804 11.702 18.0939 11.9052 18.2832 12.1755L19.9216 11.0285ZM17.1224 9.702C15.9814 9.702 14.9732 10.0989 14.3335 11.0397L15.9873 12.1643C16.1636 11.9051 16.4634 11.702 17.1224 11.702V9.702ZM14.3388 11.0319C13.7672 11.8557 13.5484 12.9353 13.5484 14.14H15.5484C15.5484 13.1367 15.7376 12.5243 15.982 12.1721L14.3388 11.0319ZM30.4311 10.576L29.6181 11.1582L29.9173 11.576H30.4311V10.576ZM30.5211 10.576V11.576H31.3663L31.5072 10.7427L30.5211 10.576ZM30.7371 9.298V8.298H29.892L29.7511 9.13135L30.7371 9.298ZM32.2851 9.298H33.2851V8.298H32.2851V9.298ZM31.1691 22.258L30.4798 21.5336L30.4739 21.5392L31.1691 22.258ZM25.8591 23.176L25.6947 24.1624L25.698 24.1629L25.8591 23.176ZM24.2571 22.726H23.2571V23.3939L23.8741 23.6497L24.2571 22.726ZM24.2571 21.052L24.696 20.1534L23.2571 19.4507V21.052H24.2571ZM29.7471 21.124L29.0304 20.4266L29.0212 20.4363L29.7471 21.124ZM30.4131 18.298L31.412 18.3456L31.412 18.3456L30.4131 18.298ZM30.4491 17.722L31.445 17.8125L31.5442 16.722H30.4491V17.722ZM30.3771 17.722V16.722H29.8312L29.536 17.1812L30.3771 17.722ZM29.1531 18.838L29.5736 19.7453L29.5826 19.7411L29.5916 19.7368L29.1531 18.838ZM24.5811 17.866L23.7889 18.4762L23.7935 18.4822L23.7982 18.4881L24.5811 17.866ZM24.5811 10.486L23.7862 9.87932L23.785 9.88092L24.5811 10.486ZM26.1111 11.602L25.2841 11.0396L25.2765 11.0512L26.1111 11.602ZM26.1111 16.768L25.2816 17.3267L25.2896 17.3381L26.1111 16.768ZM29.8371 16.93L29.0766 16.2807L29.0752 16.2824L29.8371 16.93ZM29.8371 11.512L29.0478 12.1259L29.8371 11.512ZM27.4611 10.118C28.4506 10.118 29.1256 10.4704 29.6181 11.1582L31.2442 9.99381C30.3447 8.73761 29.0397 8.118 27.4611 8.118V10.118ZM30.4311 11.576H30.5211V9.576H30.4311V11.576ZM31.5072 10.7427L31.7232 9.46465L29.7511 9.13135L29.5351 10.4093L31.5072 10.7427ZM30.7371 10.298H32.2851V8.298H30.7371V10.298ZM31.2851 9.298V19.126H33.2851V9.298H31.2851ZM31.2851 19.126C31.2851 20.3299 30.9643 21.0725 30.4798 21.5336L31.8585 22.9824C32.862 22.0275 33.2851 20.6821 33.2851 19.126H31.2851ZM30.4739 21.5392C30.0018 21.9958 29.1799 22.32 27.8031 22.32V24.32C29.4504 24.32 30.8725 23.9362 31.8644 22.9768L30.4739 21.5392ZM27.8031 22.32C27.1394 22.32 26.5462 22.2749 26.0203 22.1891L25.698 24.1629C26.3481 24.2691 27.0509 24.32 27.8031 24.32V22.32ZM26.0235 22.1896C25.5154 22.1049 25.0555 21.9745 24.6402 21.8023L23.8741 23.6497C24.4428 23.8855 25.0508 24.0551 25.6947 24.1624L26.0235 22.1896ZM25.2571 22.726V21.052H23.2571V22.726H25.2571ZM23.8183 21.9506C25.014 22.5345 26.3883 22.808 27.9111 22.808V20.808C26.626 20.808 25.5643 20.5775 24.696 20.1534L23.8183 21.9506ZM27.9111 22.808C28.9016 22.808 29.8056 22.5163 30.4731 21.8117L29.0212 20.4363C28.8247 20.6437 28.5046 20.808 27.9111 20.808V22.808ZM30.4639 21.8214C31.1294 21.1373 31.3951 20.2251 31.3951 19.234H29.3951C29.3951 19.8749 29.2289 20.2227 29.0304 20.4266L30.4639 21.8214ZM31.3951 19.234V18.91H29.3951V19.234H31.3951ZM31.3951 18.91C31.3951 18.7765 31.4004 18.5901 31.412 18.3456L29.4143 18.2504C29.4019 18.5099 29.3951 18.7315 29.3951 18.91H31.3951ZM31.412 18.3456C31.4238 18.0976 31.435 17.9227 31.445 17.8125L29.4532 17.6315C29.4393 17.7853 29.4265 17.9944 29.4143 18.2504L31.412 18.3456ZM30.4491 16.722H30.3771V18.722H30.4491V16.722ZM29.536 17.1812C29.3013 17.5463 29.0269 17.787 28.7147 17.9392L29.5916 19.7368C30.2634 19.409 30.805 18.9057 31.2183 18.2628L29.536 17.1812ZM28.7327 17.9307C28.3933 18.088 27.9768 18.18 27.4611 18.18V20.18C28.2175 20.18 28.929 20.044 29.5736 19.7453L28.7327 17.9307ZM27.4611 18.18C26.5093 18.18 25.8509 17.8566 25.3641 17.2439L23.7982 18.4881C24.7034 19.6274 25.965 20.18 27.4611 20.18V18.18ZM25.3734 17.2558C24.8689 16.6009 24.5551 15.6142 24.5551 14.176H22.5551C22.5551 15.8818 22.9253 17.3551 23.7889 18.4762L25.3734 17.2558ZM24.5551 14.176C24.5551 12.753 24.8676 11.7617 25.3773 11.0911L23.785 9.88092C22.9267 11.0103 22.5551 12.479 22.5551 14.176H24.5551ZM25.3761 11.0927C25.8687 10.4472 26.5247 10.118 27.4611 10.118V8.118C25.9495 8.118 24.6856 8.70082 23.7862 9.87933L25.3761 11.0927ZM27.8571 9.702C26.7866 9.702 25.8875 10.1525 25.2842 11.0397L26.9381 12.1643C27.1508 11.8515 27.4157 11.702 27.8571 11.702V9.702ZM25.2765 11.0512C24.7274 11.8832 24.5171 12.9728 24.5171 14.194H26.5171C26.5171 13.1592 26.7029 12.5208 26.9457 12.1528L25.2765 11.0512ZM24.5171 14.194C24.5171 15.4131 24.7266 16.5023 25.2817 17.3266L26.9406 16.2094C26.7037 15.8577 26.5171 15.2309 26.5171 14.194H24.5171ZM25.2896 17.3381C25.9033 18.2226 26.82 18.65 27.8931 18.65V16.65C27.4063 16.65 27.135 16.4894 26.9327 16.1979L25.2896 17.3381ZM27.8931 18.65C28.9496 18.65 29.9329 18.3614 30.5991 17.5776L29.0752 16.2824C28.9254 16.4586 28.6127 16.65 27.8931 16.65V18.65ZM30.5977 17.5793C31.2492 16.8161 31.4671 15.7241 31.4671 14.536H29.4671C29.4671 15.5559 29.2651 16.0599 29.0766 16.2807L30.5977 17.5793ZM31.4671 14.536V14.176H29.4671V14.536H31.4671ZM31.4671 14.176C31.4671 12.8758 31.2558 11.7071 30.6265 10.8981L29.0478 12.1259C29.2585 12.3969 29.4671 13.0042 29.4671 14.176H31.4671ZM30.6265 10.8981C29.9606 10.0419 28.9603 9.702 27.8571 9.702V11.702C28.554 11.702 28.8737 11.9021 29.0478 12.1259L30.6265 10.8981ZM37.0033 5.86L36.3893 6.64935V6.64935L37.0033 5.86ZM37.0033 7.552L37.6172 8.34135L37.6305 8.33101L37.6434 8.32022L37.0033 7.552ZM35.4552 7.552L34.7936 8.30184L34.8169 8.32233L34.8413 8.34135L35.4552 7.552ZM35.4552 5.86L34.8413 5.07065L34.8303 5.07921L34.8195 5.08807L35.4552 5.86ZM37.1833 9.298H38.1833V8.298H37.1833V9.298ZM37.1833 19V20H38.1833V19H37.1833ZM35.2752 19H34.2752V20H35.2752V19ZM35.2752 9.298V8.298H34.2752V9.298H35.2752ZM36.2472 6.608C36.3254 6.608 36.3585 6.62537 36.3893 6.64935L37.6172 5.07065C37.216 4.75863 36.7451 4.608 36.2472 4.608V6.608ZM36.3893 6.64935C36.367 6.632 36.348 6.61182 36.3335 6.59168C36.3193 6.57205 36.3135 6.55805 36.3124 6.55515C36.3115 6.55282 36.3154 6.56228 36.3195 6.58768C36.3235 6.61322 36.3273 6.65186 36.3273 6.706H38.3273C38.3273 6.14557 38.1716 5.50182 37.6172 5.07065L36.3893 6.64935ZM36.3273 6.706C36.3273 6.75558 36.3237 6.79113 36.3199 6.8148C36.3161 6.83829 36.3123 6.84814 36.3124 6.84785C36.3127 6.84708 36.3165 6.83766 36.3263 6.8237C36.3363 6.80942 36.349 6.79549 36.3631 6.78378L37.6434 8.32022C38.1628 7.88741 38.3273 7.27224 38.3273 6.706H36.3273ZM36.3893 6.76265C36.3585 6.78663 36.3254 6.804 36.2472 6.804V8.804C36.7451 8.804 37.216 8.65337 37.6172 8.34135L36.3893 6.76265ZM36.2472 6.804C36.1249 6.804 36.0855 6.77531 36.0692 6.76265L34.8413 8.34135C35.257 8.66468 35.7456 8.804 36.2472 8.804V6.804ZM36.1169 6.80216C36.1329 6.81628 36.1458 6.83164 36.1551 6.84568C36.1641 6.85931 36.1668 6.86728 36.1661 6.86536C36.1639 6.85918 36.1493 6.813 36.1493 6.706H34.1493C34.1493 7.25505 34.2975 7.86404 34.7936 8.30184L36.1169 6.80216ZM36.1493 6.706C36.1493 6.64934 36.1529 6.60779 36.1572 6.57914C36.1615 6.55055 36.166 6.53803 36.1661 6.53764C36.1661 6.53759 36.165 6.54074 36.1621 6.54642C36.1593 6.55214 36.1548 6.56013 36.1483 6.56968C36.1347 6.5897 36.1155 6.61172 36.091 6.63193L34.8195 5.08807C34.2888 5.52514 34.1493 6.16314 34.1493 6.706H36.1493ZM36.0692 6.64935C36.0855 6.63668 36.1249 6.608 36.2472 6.608V4.608C35.7456 4.608 35.257 4.74731 34.8413 5.07065L36.0692 6.64935ZM36.1833 9.298V19H38.1833V9.298H36.1833ZM37.1833 18H35.2752V20H37.1833V18ZM36.2752 19V9.298H34.2752V19H36.2752ZM35.2752 10.298H37.1833V8.298H35.2752V10.298ZM47.6855 9.964L48.3705 9.23537L47.6855 9.964ZM48.5855 19V20H49.5855V19H48.5855ZM46.6955 19H45.6955V20H46.6955V19ZM42.0875 19V20H43.0875V19H42.0875ZM40.1795 19H39.1795V20H40.1795V19ZM40.1795 9.298V8.298H39.1795V9.298H40.1795ZM41.6915 9.298L42.6705 9.09405L42.5047 8.298H41.6915V9.298ZM41.9615 10.594L40.9826 10.798L41.1484 11.594H41.9615V10.594ZM42.0695 10.594V11.594H42.6266L42.9198 11.1204L42.0695 10.594ZM43.3475 9.478L42.9488 8.5609L42.9414 8.56419L43.3475 9.478ZM45.0935 10.118C46.0624 10.118 46.6455 10.3588 47.0006 10.6926L48.3705 9.23537C47.5255 8.44115 46.3807 8.118 45.0935 8.118V10.118ZM47.0006 10.6926C47.3157 10.9888 47.5855 11.5686 47.5855 12.682H49.5855C49.5855 11.2994 49.2554 10.0672 48.3705 9.23537L47.0006 10.6926ZM47.5855 12.682V19H49.5855V12.682H47.5855ZM48.5855 18H46.6955V20H48.5855V18ZM47.6955 19V12.952H45.6955V19H47.6955ZM47.6955 12.952C47.6955 12.0708 47.5042 11.2232 46.9464 10.59C46.3673 9.93258 45.5529 9.684 44.6975 9.684V11.684C45.1742 11.684 45.3588 11.8134 45.4457 11.912C45.5539 12.0348 45.6955 12.3212 45.6955 12.952H47.6955ZM44.6975 9.684C43.5198 9.684 42.4279 10.0396 41.8005 11.0314L43.4906 12.1006C43.6072 11.9164 43.8833 11.684 44.6975 11.684V9.684ZM41.8005 11.0314C41.2841 11.8475 41.0875 12.9121 41.0875 14.104H43.0875C43.0875 13.0879 43.263 12.4605 43.4906 12.1006L41.8005 11.0314ZM41.0875 14.104V19H43.0875V14.104H41.0875ZM42.0875 18H40.1795V20H42.0875V18ZM41.1795 19V9.298H39.1795V19H41.1795ZM40.1795 10.298H41.6915V8.298H40.1795V10.298ZM40.7126 9.50195L40.9826 10.798L42.9405 10.39L42.6705 9.09405L40.7126 9.50195ZM41.9615 11.594H42.0695V9.594H41.9615V11.594ZM42.9198 11.1204C43.1264 10.7866 43.3979 10.5499 43.7537 10.3918L42.9414 8.56419C42.2172 8.88606 41.6367 9.39337 41.2193 10.0676L42.9198 11.1204ZM43.7463 10.3951C44.1703 10.2107 44.6164 10.118 45.0935 10.118V8.118C44.3467 8.118 43.6288 8.26529 42.9488 8.56093L43.7463 10.3951Z" fill="black" mask="url(#path-2-outside-1_479_2883)"/>
</svg>
